<?xml version="1.0" encoding="UTF-8"?>
<svg id="Layer_1" data-name="Layer 1" xmlns="http://www.w3.org/2000/svg" viewBox="0 0 853 564.58">
  <defs>
    <style>
      .cls-1 {
        fill: #17191e;
      }

      .cls-2 {
        fill: #17191e;
      }
    </style>
  </defs>
  <polygon class="cls-1" points="271.24 1.23 271.24 233.19 82.23 233.19 82.23 1.23 0 1.23 0 564.58 82.23 564.58 82.23 315.43 271.24 315.43 271.24 390.29 353.47 390.29 353.47 1.23 271.24 1.23"/>
  <path class="cls-2" d="m477.43,0l.38,417.29c.19,2.02.3,4.07.3,6.14,0,35.25-28.33,63.82-63.28,63.82s-63.28-28.57-63.28-63.82c0-2.07.11-4.12.3-6.14h-79.36c-.01.82-.03,1.63-.03,2.45,0,79.31,63.74,143.6,142.37,143.6s142.37-64.29,142.37-143.6V0h-79.78Z"/>
  <polygon class="cls-1" points="587.89 3.68 651.72 235.65 722.9 0 853 0 853 563.35 769.54 563.35 769.54 96.96 681.17 381.7 625.94 381.7 589.12 238.1 587.89 3.68"/>
</svg>